<!-- block-question icon by Free Icons (https://free-icons.github.io/free-icons/) -->
<svg xmlns="http://www.w3.org/2000/svg" height="1em" fill="currentColor" viewBox="0 0 448 448">
  <path
    d="M 64 32 Q 50 32 41 41 L 41 41 Q 32 50 32 64 L 32 384 Q 32 398 41 407 Q 50 416 64 416 L 384 416 Q 398 416 407 407 Q 416 398 416 384 L 416 64 Q 416 50 407 41 Q 398 32 384 32 L 64 32 L 64 32 Z M 0 64 Q 1 37 19 19 L 19 19 Q 37 1 64 0 L 384 0 Q 411 1 429 19 Q 447 37 448 64 L 448 384 Q 447 411 429 429 Q 411 447 384 448 L 64 448 Q 37 447 19 429 Q 1 411 0 384 L 0 64 L 0 64 Z M 88 64 Q 110 66 112 88 Q 110 110 88 112 Q 66 110 64 88 Q 66 66 88 64 L 88 64 Z M 336 88 Q 338 66 360 64 Q 382 66 384 88 Q 382 110 360 112 Q 338 110 336 88 L 336 88 Z M 88 336 Q 110 338 112 360 Q 110 382 88 384 Q 66 382 64 360 Q 66 338 88 336 L 88 336 Z M 336 360 Q 338 338 360 336 Q 382 338 384 360 Q 382 382 360 384 Q 338 382 336 360 L 336 360 Z M 137 146 Q 142 127 157 116 L 157 116 Q 171 104 191 104 L 248 104 Q 275 105 293 123 Q 311 141 312 168 Q 311 207 277 226 L 240 244 L 240 264 Q 239 279 224 280 Q 209 279 208 264 L 208 235 Q 208 225 217 220 L 263 197 Q 279 187 280 168 Q 280 154 271 145 Q 262 136 248 136 L 191 136 Q 173 137 168 154 L 168 154 Q 162 168 148 166 Q 134 161 137 146 L 137 146 L 137 146 Z M 200 328 Q 202 306 224 304 Q 246 306 248 328 Q 246 350 224 352 Q 202 350 200 328 L 200 328 Z"
  />
</svg>