<?xml version="1.0" encoding="UTF-8" standalone="no"?>
<svg
   width="98"
   height="98"
   version="1.1"
   id="svg1"
   sodipodi:docname="code.svg"
   inkscape:version="1.3.2 (091e20e, 2023-11-25)"
   xmlns:inkscape="http://www.inkscape.org/namespaces/inkscape"
   xmlns:sodipodi="http://sodipodi.sourceforge.net/DTD/sodipodi-0.dtd"
   xmlns="http://www.w3.org/2000/svg"
   xmlns:svg="http://www.w3.org/2000/svg">
  <defs
     id="defs1" />
  <sodipodi:namedview
     id="namedview1"
     pagecolor="#ffffff"
     bordercolor="#000000"
     borderopacity="0.25"
     inkscape:showpageshadow="2"
     inkscape:pageopacity="0.0"
     inkscape:pagecheckerboard="0"
     inkscape:deskcolor="#d1d1d1"
     inkscape:zoom="2.4583333"
     inkscape:cx="48.813559"
     inkscape:cy="48"
     inkscape:window-width="1440"
     inkscape:window-height="847"
     inkscape:window-x="0"
     inkscape:window-y="25"
     inkscape:window-maximized="1"
     inkscape:current-layer="svg1" />
  <path
     fill-rule="evenodd"
     clip-rule="evenodd"
     d="M 48.854,0 C 21.839,0 0,22.37288 0,50.051183 c 0,22.124744 13.993,40.852878 33.405,47.481353 2.427,0.498305 3.316,-1.07695 3.316,-2.402034 0,-1.160339 -0.08,-5.137627 -0.08,-9.281694 -13.59,2.983728 -16.42,-5.966441 -16.42,-5.966441 -2.184,-5.800677 -5.42,-7.291525 -5.42,-7.291525 -4.448,-3.066101 0.324,-3.066101 0.324,-3.066101 4.934,0.331525 7.523,5.137627 7.523,5.137627 4.367,7.62305 11.404,5.469152 14.235,4.14305 0.404,-3.231864 1.699,-5.469152 3.074,-6.711864 C 29.118,70.933215 17.714,66.624402 17.714,47.39898 c 0,-5.469152 1.94,-9.943728 5.014,-13.423728 -0.485,-1.242712 -2.184,-6.381356 0.486,-13.258982 0,0 4.125,-1.326102 13.426,5.137627 A 46.97,47.766098 0 0 1 48.854,24.19627 c 4.125,0 8.33,0.580677 12.213,1.657627 9.302,-6.463729 13.427,-5.137627 13.427,-5.137627 2.67,6.877626 0.97,12.01627 0.485,13.258982 3.155,3.48 5.015,7.954576 5.015,13.423728 0,19.225422 -11.404,23.450846 -22.324,24.694574 1.78,1.574237 3.316,4.556949 3.316,9.280678 0,6.711864 -0.08,12.098643 -0.08,13.755253 0,1.326101 0.89,2.901356 3.316,2.404068 C 83.634,90.903045 97.627,72.175927 97.627,50.051183 97.707,22.37288 75.788,0 48.854,0 Z"
     fill="#24292f"
     id="path1"
     style="stroke-width:1.00844;fill:#000000" />
</svg>
