<!-- code icon by Free Icons (https://free-icons.github.io/free-icons/) -->
<svg xmlns="http://www.w3.org/2000/svg" height="1em" fill="currentColor" viewBox="0 0 640 516">
  <path
    d="M 393 3 Q 380 0 368 6 L 368 6 Q 357 12 353 25 L 225 473 Q 222 486 228 498 Q 234 509 247 513 Q 260 516 272 510 Q 283 504 287 491 L 415 43 Q 418 30 412 18 Q 406 7 393 3 L 393 3 Z M 473 123 Q 464 133 464 146 L 464 146 Q 464 159 473 169 L 563 258 L 473 347 Q 464 357 464 370 Q 464 383 473 393 Q 483 402 496 402 Q 509 402 519 393 L 631 281 Q 640 271 640 258 Q 640 245 631 235 L 519 123 Q 509 114 496 114 Q 483 114 473 123 L 473 123 Z M 167 123 Q 157 114 144 114 L 144 114 Q 131 114 121 123 L 9 235 Q 0 245 0 258 Q 0 271 9 281 L 121 393 Q 131 402 144 402 Q 157 402 167 393 Q 176 383 176 370 Q 176 357 167 347 L 77 258 L 167 169 Q 176 159 176 146 Q 176 133 167 123 L 167 123 Z"
  />
</svg>