<?xml version="1.0" encoding="UTF-8" standalone="no"?>
<!-- Uploaded to: SVG Repo, www.svgrepo.com, Generator: SVG Repo Mixer Tools -->

<svg
   fill="#000000"
   width="800px"
   height="800px"
   viewBox="0 0 32 32"
   version="1.1"
   id="svg1"
   sodipodi:docname="favicon-red.svg"
   inkscape:version="1.3 (0e150ed, 2023-07-21)"
   xmlns:inkscape="http://www.inkscape.org/namespaces/inkscape"
   xmlns:sodipodi="http://sodipodi.sourceforge.net/DTD/sodipodi-0.dtd"
   xmlns="http://www.w3.org/2000/svg"
   xmlns:svg="http://www.w3.org/2000/svg">
  <defs
     id="defs1" />
  <sodipodi:namedview
     id="namedview1"
     pagecolor="#505050"
     bordercolor="#ffffff"
     borderopacity="1"
     inkscape:showpageshadow="0"
     inkscape:pageopacity="0"
     inkscape:pagecheckerboard="1"
     inkscape:deskcolor="#d1d1d1"
     inkscape:zoom="0.295"
     inkscape:cx="400"
     inkscape:cy="400"
     inkscape:window-width="1376"
     inkscape:window-height="449"
     inkscape:window-x="0"
     inkscape:window-y="25"
     inkscape:window-maximized="0"
     inkscape:current-layer="svg1" />
  <path
     d="M16 0c-5.995 4-7.995 4-14 4 0 20.005 0 20.005 14 28 14-7.995 14-7.995 14-28-5.995 0-7.995 0-14-4zM7.943 9.964h2.016v6.047c0 1.76 0.249 2.011 2.015 2.011 1.767 0 2.016-0.256 2.016-2.016v-6.041h2.011v1.020c0.869-0.661 1.932-1.020 3.027-1.020 2.776 0.009 5.025 2.26 5.031 5.041-0.011 2.776-2.26 5.025-5.036 5.031-1.349-0.005-2.641-0.547-3.584-1.509-0.615 1.025-1.749 1.509-3.464 1.509-2.771 0-4.031-1.26-4.031-4.031zM19.021 11.979c-1.677-0.009-3.032 1.349-3.021 3.027-0.005 1.672 1.355 3.025 3.027 3.016 1.671 0.009 3.025-1.349 3.015-3.027 0.011-1.672-1.348-3.025-3.020-3.016z"
     id="path1"
     style="fill:#d35f5f" />
</svg>
