<svg id="ejiRWMJ6XTn1" xmlns="http://www.w3.org/2000/svg" xmlns:xlink="http://www.w3.org/1999/xlink" viewBox="0 0 128 128" shape-rendering="geometricPrecision" text-rendering="geometricPrecision"><g transform="translate(.000001 0)"><path d="M7.375955,112.938253c.891219,4.299956,5.650507,5.960178,8.902424,4.02497C23.748903,111.363006,34.88067,105.871529,47.41,105.705974L33.47,23.37234c-12.077823.887355-29.059218,9.235113-32.78,20.334368-.752052-.212158,3.355993,35.803972,6.685955,69.231545Z" transform="translate(0-.120608)" fill="#0052b4" stroke-width="0.5"/><path d="M33.47,23.250031c5.720384-1.542135,22.609708.347598,35.370297.270683l25.007345,82.848894c-8.574119,3.065398-31.143223.997974-46.376929-.723528C44.021723,85.387706,36.737162,44.161264,33.47,23.250031Z" transform="translate(-.060713-.060714)" fill="#e6e6e6" stroke-width="0.5"/><path d="M97.105189,11.791717c4.01547-2.966024,7.85368-1.136753,9.131506,1.613224c3.935223,12.448375,14.427699,46.864692,21.166871,69.014553.350869,4.888063-4.835873,9.064572-11.13308,13.43573-7.084311,4.91752-15.299218,8.841025-22.483557,10.453667L68.779584,23.46c18.154746-.364571,21.194284-6.680015,28.325605-11.668283" transform="translate(0 0.061581)" fill="#ed2939" stroke-width="0.5"/></g></svg>
