<?xml version="1.0" encoding="UTF-8"?>
<!-- Uploaded to: SVG Repo, www.svgrepo.com, Generator: SVG Repo Mixer Tools -->
<svg width="98" height="98" fill="none" version="1.1" viewBox="0 0 98 98" xmlns="http://www.w3.org/2000/svg">
 <path d="m92.867 48.926c0 24.268-19.673 43.941-43.941 43.941m43.941-43.941c0-24.268-19.673-43.941-43.941-43.941m43.941 43.941c0 8.0896-19.673 14.647-43.941 14.647-24.268 0-43.941-6.5575-43.941-14.647m87.882 0c0-8.0896-19.673-14.647-43.941-14.647-24.268 0-43.941 6.5575-43.941 14.647m43.941 43.941c-24.268 0-43.941-19.673-43.941-43.941m43.941 43.941c-8.0896 0-14.647-19.673-14.647-43.941 0-24.268 6.5575-43.941 14.647-43.941m0 87.882c8.0896 0 14.647-19.673 14.647-43.941 0-24.268-6.5575-43.941-14.647-43.941m-43.941 43.941c0-24.268 19.673-43.941 43.941-43.941" stroke="#000" stroke-linecap="round" stroke-linejoin="round" stroke-width="9.7647"/>
</svg>
