<!-- language icon by Free Icons (https://free-icons.github.io/free-icons/) -->
<svg xmlns="http://www.w3.org/2000/svg" height="1em" fill="currentColor" viewBox="0 0 640 384">
  <path
    d="M 64 0 Q 37 1 19 19 L 19 19 Q 1 37 0 64 L 0 320 Q 1 347 19 365 Q 37 383 64 384 L 272 384 L 304 384 L 320 384 L 576 384 Q 603 383 621 365 Q 639 347 640 320 L 640 64 Q 639 37 621 19 Q 603 1 576 0 L 320 0 L 304 0 L 272 0 L 64 0 L 64 0 Z M 576 48 Q 591 49 592 64 L 592 320 Q 591 335 576 336 L 320 336 L 320 48 L 576 48 L 576 48 Z M 178 112 L 242 256 Q 248 273 232 282 Q 215 288 206 272 L 197 252 L 123 252 L 114 272 Q 105 288 88 282 Q 72 273 78 256 L 142 112 Q 147 101 160 100 Q 173 101 178 112 L 178 112 Z M 179 212 L 160 169 L 141 212 L 179 212 L 179 212 Z M 456 100 Q 438 102 436 120 L 436 124 L 384 124 Q 366 126 364 144 Q 366 162 384 164 L 456 164 L 491 164 Q 480 189 461 209 L 461 209 L 446 194 Q 432 182 418 194 Q 406 208 418 222 L 430 234 Q 421 240 412 244 L 408 246 Q 392 255 398 272 Q 407 288 424 282 L 428 281 Q 446 273 462 261 Q 468 266 475 270 L 494 281 Q 510 289 521 274 Q 529 258 514 247 L 495 236 Q 495 235 494 235 Q 493 234 493 234 Q 519 205 532 169 L 534 164 L 536 164 Q 554 162 556 144 Q 554 126 536 124 L 520 124 L 476 124 L 476 120 Q 474 102 456 100 L 456 100 Z"
  />
</svg>