<?xml version="1.0" encoding="UTF-8" standalone="no" ?>
<!DOCTYPE svg PUBLIC "-//W3C//DTD SVG 1.1//EN" "http://www.w3.org/Graphics/SVG/1.1/DTD/svg11.dtd">
<svg xmlns="http://www.w3.org/2000/svg" xmlns:xlink="http://www.w3.org/1999/xlink" version="1.1" width="128" height="128" viewBox="0 0 128 128" xml:space="preserve">
<desc>Created with Fabric.js 5.2.4</desc>
<defs>
</defs>
<g transform="matrix(1 0 0 1 64 64)" id="a312b92d-923e-4b96-b739-d15f8b19d474"  >
<rect style="stroke: none; stroke-width: 1; stroke-dasharray: none; stroke-linecap: butt; stroke-dashoffset: 0; stroke-linejoin: miter; stroke-miterlimit: 4; fill: rgb(255,255,255); fill-rule: nonzero; opacity: 1; visibility: hidden;" vector-effect="non-scaling-stroke"  x="-64" y="-64" rx="0" ry="0" width="128" height="128" />
</g>
<g transform="matrix(Infinity NaN NaN Infinity 0 0)" id="8d4aeb8e-45c7-41ed-b308-3cb1535bf101"  >
</g>
<g transform="matrix(1 0 0 1 64 59)"  >
<path style="stroke: none; stroke-width: 1; stroke-dasharray: none; stroke-linecap: butt; stroke-dashoffset: 0; stroke-linejoin: miter; stroke-miterlimit: 4; fill: rgb(255,255,255); fill-rule: nonzero; opacity: 1;" vector-effect="non-scaling-stroke"  transform=" translate(-64, -63.99)" d="M 100.96 10.37 C 99.39999999999999 10.37 97.88 10.979999999999999 96.75999999999999 12.11 C 87.19999999999999 21.68 78.82 23.490000000000002 66.69 23.490000000000002 C 63.01 23.490000000000002 58.97 23.310000000000002 54.69 23.110000000000003 C 51.32 22.970000000000002 47.839999999999996 22.800000000000004 44.08 22.720000000000002 C 43.42 22.700000000000003 42.769999999999996 22.700000000000003 42.129999999999995 22.700000000000003 C 11.459999999999994 22.700000000000003 1.6399999999999935 41.25 1.2399999999999949 42.040000000000006 C 0.7199999999999949 43.050000000000004 0.5099999999999949 44.2 0.6199999999999949 45.330000000000005 L 7.3399999999999945 112.28 C 7.559999999999994 114.5 9.009999999999994 116.41 11.089999999999995 117.22 C 11.789999999999994 117.5 12.519999999999994 117.62 13.249999999999995 117.62 C 14.679999999999994 117.62 16.089999999999996 117.10000000000001 17.199999999999996 116.12 C 17.299999999999997 116.03 29.629999999999995 105.49000000000001 49.33 105.49000000000001 C 51.85 105.49000000000001 54.42 105.66000000000001 56.96 106.00000000000001 C 66.22 107.23000000000002 72.99000000000001 107.78000000000002 78.9 107.78000000000002 C 98.09 107.78000000000002 111.65 101.88000000000001 125.72 87.40000000000002 C 127.23 85.85000000000002 127.78 83.59000000000002 127.14 81.52000000000002 L 106.63 14.570000000000022 C 106.02 12.570000000000022 104.41 11.040000000000022 102.38 10.54000000000002 C 101.92 10.43 101.44 10.37 100.96 10.37 L 100.96 10.37 z" stroke-linecap="round" />
</g>
<g transform="matrix(1.05 0 0 1.19 65.75 82.79)" clip-path="url(#CLIPPATH_3)"  >
<clipPath id="CLIPPATH_3" >
	<path transform="matrix(1 0 0 1 2.7 1.94) translate(-64, -63.99)" id="SVGID_2_" d="M 100.96 10.37 C 99.39999999999999 10.37 97.88 10.979999999999999 96.75999999999999 12.11 C 87.19999999999999 21.68 78.82 23.490000000000002 66.69 23.490000000000002 C 63.01 23.490000000000002 58.97 23.310000000000002 54.69 23.110000000000003 C 51.32 22.970000000000002 47.839999999999996 22.800000000000004 44.08 22.720000000000002 C 43.42 22.700000000000003 42.769999999999996 22.700000000000003 42.129999999999995 22.700000000000003 C 11.459999999999994 22.700000000000003 1.6399999999999935 41.25 1.2399999999999949 42.040000000000006 C 0.7199999999999949 43.050000000000004 0.5099999999999949 44.2 0.6199999999999949 45.330000000000005 L 7.3399999999999945 112.28 C 7.559999999999994 114.5 9.009999999999994 116.41 11.089999999999995 117.22 C 11.789999999999994 117.5 12.519999999999994 117.62 13.249999999999995 117.62 C 14.679999999999994 117.62 16.089999999999996 117.10000000000001 17.199999999999996 116.12 C 17.299999999999997 116.03 29.629999999999995 105.49000000000001 49.33 105.49000000000001 C 51.85 105.49000000000001 54.42 105.66000000000001 56.96 106.00000000000001 C 66.22 107.23000000000002 72.99000000000001 107.78000000000002 78.9 107.78000000000002 C 98.09 107.78000000000002 111.65 101.88000000000001 125.72 87.40000000000002 C 127.23 85.85000000000002 127.78 83.59000000000002 127.14 81.52000000000002 L 106.63 14.570000000000022 C 106.02 12.570000000000022 104.41 11.040000000000022 102.38 10.54000000000002 C 101.92 10.43 101.44 10.37 100.96 10.37 L 100.96 10.37 z" stroke-linecap="round" />
</clipPath>
<path style="stroke: none; stroke-width: 1; stroke-dasharray: none; stroke-linecap: butt; stroke-dashoffset: 0; stroke-linejoin: miter; stroke-miterlimit: 4; fill: rgb(255,0,0); fill-rule: nonzero; opacity: 1;" vector-effect="non-scaling-stroke"  transform=" translate(-61.3, -62.05)" d="M 54.86 78.96 C 80.97 81.1 97.63 84.32 121.91 57.83 L 112.12 24.299999999999997 C 90.03 46.76 77.84 48.4 48.43000000000001 45.4 C 23.56 42.87 8.07 57.94 0.69 65.83 L 4.49 99.81 C 13.92 91.95 29.55 76.89 54.86 78.96 z" stroke-linecap="round" />
</g>
</svg>