<?xml version="1.0" encoding="UTF-8"?>
<!-- reddit icon by Free Icons (https://free-icons.github.io/free-icons/) -->
<svg width="98" height="98" fill="currentColor" version="1.1" viewBox="0 0 98 98" xmlns="http://www.w3.org/2000/svg">
 <path d="m38.179 58.646q-4.5264-0.5904-4.92-4.92 0.3936-4.5264 4.92-4.92 4.3296 0.3936 4.7232 4.92-0.3936 4.3296-4.7232 4.92zm59.433-9.8399q-0.1968 13.579-6.6912 24.6t-17.515 17.515-24.6 6.6912q-13.579-0.1968-24.6-6.6912-11.021-6.4944-17.515-17.515-6.4944-11.021-6.6912-24.6 0.1968-13.579 6.6912-24.6 6.4944-11.021 17.515-17.515 11.021-6.4944 24.6-6.6912 13.579 0.1968 24.6 6.6912 11.021 6.4944 17.515 17.515 6.4944 11.021 6.6912 24.6zm-25.977-8.0688q-2.952 0-4.7232 1.968-6.888-4.7232-16.925-5.3136l3.3456-15.35 11.021 2.3616q0.3936 4.5264 4.7232 4.92 4.5264-0.3936 4.92-4.92-0.3936-4.5264-4.92-4.92-2.952 0.1968-4.3296 2.7552l-12.005-2.7552q-0.98399 0-1.3776 0.98399l-3.7392 16.925q-10.037 0.5904-16.925 5.3136-1.7712-1.968-4.7232-1.968-5.1168 0.3936-6.2976 4.92-0.98399 4.5264 3.5424 7.4784-0.3936 1.3776-0.3936 2.952 0.3936 8.0688 7.6752 13.186 7.2816 5.3136 18.302 5.5104 11.021-0.1968 18.499-5.5104 7.2816-5.1168 7.6752-13.186 0-1.5744-0.3936-3.1488 4.3296-2.7552 3.3456-7.2816-1.1808-4.5264-6.2976-4.92zm-13.579 22.829q-3.1488 2.7552-9.2495 2.7552-6.1008-0.1968-9.2495-2.7552-0.7872-0.5904-1.5744 0-0.7872 0.98399 0 1.7712 3.936 3.3456 10.824 3.3456t10.824-3.3456q0.7872-0.7872 0-1.7712-0.7872-0.5904-1.5744 0zm1.5744-14.76q-4.5264 0.3936-4.92 4.92 0.3936 4.3296 4.92 4.92 4.3296-0.5904 4.7232-4.92-0.3936-4.5264-4.7232-4.92z" stroke-width=".1968"/>
</svg>
