<!-- reddit icon by Free Icons (https://free-icons.github.io/free-icons/) -->
<svg xmlns="http://www.w3.org/2000/svg" height="1em" fill="currentColor" viewBox="0 0 496 496">
  <path
    d="M 194 298 Q 171 295 169 273 Q 171 250 194 248 Q 216 250 218 273 Q 216 295 194 298 L 194 298 Z M 496 248 Q 495 317 462 373 L 462 373 Q 429 429 373 462 L 373 462 Q 317 495 248 496 Q 179 495 123 462 Q 67 429 34 373 Q 1 317 0 248 Q 1 179 34 123 Q 67 67 123 34 Q 179 1 248 0 Q 317 1 373 34 Q 429 67 462 123 Q 495 179 496 248 L 496 248 Z M 364 207 Q 349 207 340 217 Q 305 193 254 190 L 271 112 L 327 124 Q 329 147 351 149 Q 374 147 376 124 Q 374 101 351 99 Q 336 100 329 113 L 268 99 Q 263 99 261 104 L 242 190 Q 191 193 156 217 Q 147 207 132 207 Q 106 209 100 232 Q 95 255 118 270 Q 116 277 116 285 Q 118 326 155 352 Q 192 379 248 380 Q 304 379 342 352 Q 379 326 381 285 Q 381 277 379 269 Q 401 255 396 232 Q 390 209 364 207 L 364 207 Z M 295 323 Q 279 337 248 337 L 248 337 Q 217 336 201 323 Q 197 320 193 323 Q 189 328 193 332 Q 213 349 248 349 Q 283 349 303 332 Q 307 328 303 323 Q 299 320 295 323 L 295 323 Z M 303 248 Q 280 250 278 273 Q 280 295 303 298 Q 325 295 327 273 Q 325 250 303 248 L 303 248 Z"
  />
</svg>