<svg version="1.1" xmlns="http://www.w3.org/2000/svg" xmlns:xlink="http://www.w3.org/1999/xlink" viewBox="0 0 1320.7 996.2">
	<path fill="#E30A17" d="M0 208.4c87.9-74.1 192-112.6 306.2-120.5 95.1-6.5 190.4 5.2 284.6 16.3 94.3 11 189.5 22.7 284.6 16.3 114.2-7.8 218.3-46.4 306.2-120.4 46.3 262.6 92.6 525.2 138.9 787.8-87.9 74.1-192 112.7-306.2 120.4-95.1 6.5-190.3-5.2-284.6-16.3-94.3-11-189.6-22.8-284.6-16.3-114.2 7.8-218.3 46.3-306.2 120.4-46.3-262.5-92.6-525.1-138.9-787.7z"/>
	<path fill="#FFFFFF" d="M615.4 492.9c59.1-12.2 118.4-23.6 177-38.1-29.1 47-58.9 93.6-88.8 140-11-62.4-22-124.9-33-187.3 47.2 54.6 94.5 109 142.3 163-66.5-24.3-131.8-51.3-197.5-77.6zM646.8 599.7c-49.6 96.1-186.9 90-271.2 51.2-100.6-45.8-150.1-157.5-109.2-261.8 45.7-113.7 172.1-129.8 268.2-68.1 28.7 19 53.3 41.4 75 68-60.6-57.2-167.6-97.7-233.9-25.5-60.7 66-35.7 168.7 27.1 223.1 59.4 51.5 168 80.6 233.6 23.5 3.7-3.2 7.2-6.7 10.4-10.4z"/>
</svg>
