<!-- shield-check icon by Free Icons (https://free-icons.github.io/free-icons/) -->
<svg xmlns="http://www.w3.org/2000/svg" height="1em" fill="currentColor" viewBox="0 0 482 515">
  <path
    d="M 58 127 L 241 49 L 424 127 Q 433 132 433 140 Q 433 187 417 248 Q 401 308 361 366 Q 320 423 247 460 Q 241 462 235 460 Q 162 423 121 366 Q 81 308 65 248 Q 49 187 49 140 Q 49 132 58 127 L 58 127 Z M 443 83 L 254 3 Q 248 0 241 0 Q 234 0 228 3 L 39 83 Q 22 90 12 105 Q 1 120 1 140 Q 0 191 18 260 Q 36 329 83 394 Q 129 460 215 503 Q 241 515 267 503 Q 353 460 399 394 Q 446 329 464 260 Q 482 191 481 140 Q 481 120 470 105 Q 460 90 443 83 L 443 83 Z M 354 209 Q 368 192 354 175 Q 337 161 320 175 L 209 286 L 162 239 Q 145 225 128 239 Q 114 256 128 273 L 192 337 Q 209 351 226 337 L 354 209 L 354 209 Z"
  />
</svg>